<svg width="2144" height="1540" viewBox="0 0 2144 1540" fill="none" xmlns="http://www.w3.org/2000/svg">
<g clip-path="url(#clip0_1103_110)">
<path d="M248.041 966.658C235.306 954.349 220.025 945.435 202.198 939.068C184.37 932.701 165.269 929.729 144.894 929.729C124.52 929.729 105.418 932.701 87.5907 939.068C69.7629 945.435 54.482 954.349 41.7479 966.658C29.0137 978.968 18.8265 994.249 11.6105 1012.93C4.39445 1031.6 0.574219 1053.25 0.574219 1077.45V1213.28C0.574219 1237.05 3.54551 1257.85 9.91257 1275.25C16.2796 1292.65 24.769 1307.51 35.8053 1318.97C46.8415 1330.43 60.0001 1339.34 75.281 1344.86C90.562 1350.38 107.116 1353.35 124.52 1353.35C143.621 1353.35 161.449 1349.96 177.154 1343.16C192.859 1336.37 206.442 1325.76 217.054 1310.9V1394.1C217.054 1409.81 215.356 1422.96 211.536 1433.58C207.716 1444.19 202.622 1452.25 196.255 1458.2C189.888 1464.14 182.248 1468.38 173.334 1470.93C164.42 1473.48 155.081 1474.75 144.894 1474.75C123.246 1474.75 106.692 1469.23 94.8067 1458.2C82.9215 1447.16 76.9789 1433.15 76.9789 1416.17C76.9789 1402.17 69.7629 1394.95 55.7554 1394.95H29.4382C12.8839 1394.95 4.81892 1403.01 4.81892 1418.72C4.81892 1435.7 8.21469 1451.4 14.5817 1466.26C20.9488 1481.12 30.2872 1493.85 42.5968 1504.46C54.9064 1515.07 69.3384 1523.56 86.7417 1529.93C104.145 1536.3 123.246 1539.27 144.894 1539.27C165.269 1539.27 184.37 1536.3 202.198 1530.78C220.025 1525.26 235.306 1516.35 248.041 1504.46C260.775 1492.58 270.962 1477.72 278.178 1459.47C285.394 1441.22 289.214 1419.99 289.214 1394.95V1077.02C289.214 1052.83 285.394 1031.18 278.178 1012.5C270.962 993.825 260.775 978.544 248.041 966.234V966.658ZM217.054 1201.82C217.054 1233.65 209.838 1255.72 195.831 1268.03C181.823 1280.34 164.844 1286.71 144.894 1286.71C124.944 1286.71 107.965 1280.34 93.9577 1268.03C79.9502 1255.72 72.7342 1233.65 72.7342 1201.82V1082.11C72.7342 1050.28 79.9502 1028.21 93.9577 1015.9C107.965 1003.59 124.944 997.22 144.894 997.22C164.844 997.22 181.823 1003.59 195.831 1015.9C209.838 1028.21 217.054 1050.28 217.054 1082.11V1201.82Z" fill="#00693A"/>
<path d="M636.207 966.658C623.472 954.349 608.191 945.435 590.364 939.068C572.536 932.701 553.435 929.729 533.06 929.729C512.686 929.729 494.009 932.701 477.03 939.068C460.051 945.435 445.619 954.349 433.734 965.809C421.849 977.27 412.511 990.853 406.144 1006.56C399.776 1022.26 396.381 1039.24 396.381 1057.92C396.381 1073.62 404.446 1081.69 421 1081.69H447.317C461.325 1081.69 468.541 1074.47 468.541 1060.47C468.541 1041.79 474.483 1026.51 485.944 1014.62C497.405 1002.74 513.11 996.796 533.06 996.796C553.01 996.796 569.989 1003.16 583.997 1015.47C598.004 1027.78 605.22 1049.85 605.22 1081.69V1123.29H533.06C488.915 1123.29 453.684 1134.75 427.792 1158.09C401.899 1181.44 388.74 1214.12 388.74 1256.57V1262.51C388.74 1284.16 392.56 1302.84 399.776 1319.39C406.992 1335.95 417.18 1349.53 430.338 1360.99C443.497 1372.45 458.778 1380.94 476.181 1386.88C493.584 1392.83 512.686 1395.8 533.06 1395.8C553.435 1395.8 572.536 1392.83 590.364 1386.46C608.191 1380.09 623.472 1371.18 636.207 1358.87C648.941 1346.56 659.128 1331.28 666.344 1313.03C673.56 1294.77 677.38 1273.13 677.38 1248.08V1077.45C677.38 1053.25 673.56 1031.6 666.344 1012.93C659.128 994.249 648.941 978.968 636.207 966.658ZM605.22 1244.26C605.22 1276.1 598.004 1298.17 583.997 1310.48C569.989 1322.79 553.01 1329.16 533.06 1329.16C513.11 1329.16 496.131 1323.64 482.124 1312.6C468.116 1301.57 460.9 1283.31 460.9 1257.85C460.9 1232.38 468.116 1214.55 482.124 1203.94C496.131 1193.33 513.11 1188.23 533.06 1188.23H605.22V1244.26Z" fill="#00693A"/>
<path d="M954.666 933.125C946.601 931.427 939.385 930.578 932.594 930.154C925.802 930.154 919.435 929.729 913.068 929.729C872.319 929.729 840.484 939.068 818.411 957.745C795.914 976.421 784.878 1009.11 784.878 1055.37V1363.11C784.878 1378.82 792.943 1386.88 808.648 1386.88H832.419C848.973 1386.88 857.038 1378.82 857.038 1363.11V1061.32C857.038 1036.27 862.556 1019.29 873.168 1010.38C883.78 1001.46 900.758 996.796 923.255 996.796C927.924 996.796 932.169 996.796 936.838 997.645C941.508 998.069 946.177 998.918 951.27 1000.19C959.335 1001.46 965.278 999.767 969.523 995.098C973.767 990.429 975.89 984.486 975.89 976.421V957.745C975.89 949.68 973.767 944.161 969.947 940.341C966.127 936.521 961.033 934.399 954.666 933.125Z" fill="#00693A"/>
<path d="M1303.44 782.691H1280.52C1263.96 782.691 1255.9 790.756 1255.9 807.31V972.005C1245.29 957.148 1231.7 946.537 1216 939.321C1200.29 932.105 1182.46 928.709 1163.36 928.709C1145.96 928.709 1129.4 931.68 1114.12 937.198C1098.84 942.716 1085.68 951.63 1074.65 963.091C1063.61 974.552 1055.12 989.408 1048.76 1006.81C1042.39 1024.21 1039.42 1045.01 1039.42 1068.78V1247.06C1039.42 1272.11 1043.24 1293.75 1050.45 1312.43C1057.67 1331.11 1067.86 1346.39 1080.59 1358.7C1093.32 1371.01 1108.61 1379.92 1126.43 1385.86C1144.26 1391.81 1163.36 1394.78 1183.74 1394.78C1204.11 1394.78 1223.21 1391.81 1241.04 1385.86C1258.87 1379.92 1274.15 1371.01 1286.88 1358.7C1299.62 1346.39 1309.8 1331.11 1317.02 1312.43C1324.24 1293.75 1328.06 1272.11 1328.06 1247.06V806.886C1328.06 790.332 1319.99 782.267 1303.44 782.267V782.691ZM1255.47 1243.67C1255.47 1275.5 1248.26 1297.57 1234.25 1309.88C1220.24 1322.19 1203.26 1328.56 1183.31 1328.56C1163.36 1328.56 1146.38 1322.19 1132.38 1309.88C1118.37 1297.57 1111.15 1275.5 1111.15 1243.67V1081.52C1111.15 1049.68 1118.37 1027.61 1132.38 1015.3C1146.38 1002.99 1163.36 996.624 1183.31 996.624C1203.26 996.624 1220.24 1002.99 1234.25 1015.3C1248.26 1027.61 1255.47 1049.68 1255.47 1081.52V1243.67Z" fill="#00693A"/>
<path d="M1683.64 966.658C1670.9 954.349 1655.62 945.435 1637.79 939.068C1619.96 932.701 1600.86 929.729 1580.49 929.729C1560.11 929.729 1541.01 932.701 1523.19 939.068C1505.36 945.435 1490.08 954.349 1477.34 966.658C1464.61 978.968 1454.42 994.249 1447.21 1012.93C1439.99 1031.6 1436.17 1053.25 1436.17 1077.45V1248.08C1436.17 1273.13 1439.99 1294.77 1447.21 1313.03C1454.42 1331.28 1464.61 1346.56 1477.34 1358.87C1490.08 1371.18 1505.36 1380.09 1523.19 1386.46C1541.01 1392.83 1560.11 1395.8 1580.49 1395.8C1600.86 1395.8 1620.39 1392.83 1637.37 1386.46C1654.35 1380.09 1669.2 1371.6 1681.51 1360.14C1693.82 1348.68 1703.59 1335.1 1710.38 1319.39C1717.17 1303.69 1720.56 1285.86 1720.56 1265.91C1720.56 1250.2 1712.5 1242.14 1695.94 1242.14H1669.63C1655.62 1242.14 1648.4 1249.36 1648.4 1263.36C1648.4 1283.31 1642.04 1299.02 1629.3 1310.9C1616.57 1322.79 1600.44 1328.73 1580.49 1328.73C1560.54 1328.73 1543.56 1322.36 1529.55 1310.05C1515.54 1297.75 1508.33 1275.67 1508.33 1243.84V1180.17H1700.61C1717.17 1180.17 1725.23 1172.1 1725.23 1156.4V1077.45C1725.23 1053.25 1721.41 1031.6 1714.2 1012.93C1706.98 994.249 1696.79 978.968 1684.06 966.658H1683.64ZM1652.65 1117.35H1508.33V1081.69C1508.33 1049.85 1515.54 1027.78 1529.55 1015.47C1543.56 1003.16 1560.54 996.796 1580.49 996.796C1600.44 996.796 1617.42 1003.16 1631.43 1015.47C1645.43 1027.78 1652.65 1049.85 1652.65 1081.69V1117.35Z" fill="#00693A"/>
<path d="M2078.82 966.658C2066.08 954.349 2050.8 945.435 2032.97 939.068C2015.15 932.701 1996.04 929.729 1975.67 929.729C1955.3 929.729 1936.19 932.701 1918.37 939.068C1900.54 945.435 1885.26 954.349 1872.52 966.658C1859.79 978.968 1849.6 994.249 1842.39 1012.93C1835.17 1031.6 1831.35 1053.25 1831.35 1077.45V1363.11C1831.35 1378.82 1839.41 1386.88 1855.12 1386.88H1878.89C1895.44 1386.88 1903.51 1378.82 1903.51 1363.11V1081.69C1903.51 1049.85 1910.73 1027.78 1924.73 1015.47C1938.74 1003.16 1955.72 996.796 1975.67 996.796C1995.62 996.796 2012.6 1003.16 2026.61 1015.47C2040.61 1027.78 2047.83 1049.85 2047.83 1081.69V1363.11C2047.83 1378.82 2055.89 1386.88 2071.6 1386.88H2095.37C2111.92 1386.88 2119.99 1378.82 2119.99 1363.11V1077.45C2119.99 1053.25 2116.17 1031.6 2108.95 1012.93C2101.74 994.249 2091.55 978.968 2078.82 966.658Z" fill="#00693A"/>
<path d="M909.152 483.896L1032.25 329.389C1036.92 324.295 1038.19 318.353 1036.07 311.986C1033.95 305.619 1028.85 302.223 1020.36 302.223H986.406C977.492 302.223 970.701 303.921 966.031 306.892C961.362 309.863 957.118 314.533 952.448 320.051L811.524 510.638V24.6193C811.524 8.06494 803.459 0 787.754 0H763.984C747.429 0 739.364 8.06494 739.364 24.6193V725.845C739.364 741.55 747.429 749.615 763.984 749.615H787.754C803.459 749.615 811.524 741.55 811.524 725.845V606.144L862.461 542.473L960.938 732.212C964.334 738.579 968.154 742.823 972.398 745.795C976.643 748.766 983.01 750.039 991.5 750.039H1021.21C1029.7 750.039 1035.22 747.068 1037.77 741.55C1040.31 736.032 1039.89 730.089 1036.49 723.722L909.152 483.896Z" fill="#00693A"/>
<path d="M1725.97 342.388C1711.97 328.805 1694.99 319.042 1675.46 311.826C1655.94 305.034 1634.71 301.639 1612.22 301.639C1589.72 301.639 1568.92 305.034 1548.97 311.826C1529.44 318.617 1512.47 328.805 1498.46 342.388C1484.45 355.971 1473.41 372.95 1465.35 393.324C1457.28 413.699 1453.04 437.469 1453.04 464.211C1453.04 490.952 1457.28 515.572 1465.35 536.371C1473.41 556.745 1484.45 573.724 1498.46 587.307C1512.47 600.89 1529.44 610.653 1548.97 617.02C1568.5 623.387 1589.72 626.783 1612.22 626.783C1634.71 626.783 1655.51 623.387 1675.46 617.02C1694.99 610.653 1711.97 600.466 1725.97 587.307C1739.98 573.724 1751.02 556.745 1759.08 536.371C1767.15 515.996 1771.39 491.801 1771.39 464.211C1771.39 436.62 1767.15 413.699 1759.08 393.324C1751.02 372.95 1739.98 355.971 1725.97 342.388ZM1674.19 539.342C1657.21 554.623 1636.41 561.839 1612.64 561.839C1588.87 561.839 1568.07 554.199 1551.09 539.342C1534.54 524.91 1526.47 499.866 1525.62 464.211C1526.47 428.555 1534.96 403.512 1551.09 389.08C1568.07 373.799 1588.87 366.583 1612.64 366.583C1636.41 366.583 1657.21 374.223 1674.19 389.08C1690.32 403.512 1698.81 428.555 1699.66 464.211C1698.81 499.866 1690.32 524.91 1674.19 539.342Z" fill="#00693A"/>
<path d="M316.764 740.139C319.311 734.621 318.886 728.678 315.491 722.311L188.149 482.486L311.246 327.978C315.915 322.885 317.189 316.942 315.066 310.575C312.944 304.208 307.85 300.812 299.361 300.812H265.403C256.489 300.812 249.698 302.51 245.029 305.481C240.359 308.453 236.115 313.122 231.445 318.64L90.5213 509.227V78.3898C90.5213 61.8354 82.4564 53.7705 66.751 53.7705H42.9806C26.4263 53.7705 18.3613 61.8354 18.3613 78.3898V724.858C18.3613 740.564 26.4263 748.628 42.9806 748.628H66.751C82.4564 748.628 90.5213 740.564 90.5213 724.858V605.157L141.458 541.487L239.935 731.225C243.331 737.592 247.151 741.837 251.396 744.808C255.64 747.779 262.007 749.053 270.497 749.053H300.21C308.699 749.053 314.217 746.082 316.764 740.564V740.139Z" fill="#00693A"/>
<path d="M444.886 739.518C464.412 745.885 485.636 749.281 508.132 749.281C530.629 749.281 551.428 745.885 571.379 739.518C590.904 733.151 607.883 722.964 621.891 709.805C635.898 696.222 646.934 679.243 654.999 658.869C663.064 638.494 667.309 614.299 667.309 586.709C667.309 559.118 663.064 536.197 654.999 515.822C646.934 495.448 635.898 478.469 621.891 464.886C607.883 451.303 590.904 441.54 571.379 434.324C551.853 427.532 530.629 424.137 508.132 424.137C485.636 424.137 464.836 427.532 444.886 434.324C425.361 441.116 408.382 451.303 394.374 464.886C380.367 478.469 369.331 495.448 361.266 515.822C353.201 536.197 348.956 559.967 348.956 586.709C348.956 613.451 353.201 638.07 361.266 658.869C369.331 679.243 380.367 696.222 394.374 709.805C408.382 723.388 425.361 733.151 444.886 739.518ZM446.584 511.578C463.563 496.721 484.362 489.081 508.132 489.081C531.903 489.081 552.702 496.721 569.681 511.578C585.811 526.01 594.3 551.053 595.149 586.709C594.3 622.364 585.811 647.408 569.681 661.84C552.702 677.121 531.903 684.337 508.132 684.337C484.362 684.337 463.563 676.697 446.584 661.84C430.03 647.408 421.965 622.364 421.116 586.709C421.965 551.053 430.454 526.01 446.584 511.578Z" fill="#00693A"/>
<path d="M1292.55 483.565L1415.64 329.057C1420.31 323.964 1421.59 318.021 1419.46 311.654C1417.34 305.287 1412.25 301.891 1403.76 301.891H1369.8C1360.89 301.891 1354.1 303.589 1349.43 306.56C1344.76 309.532 1340.51 314.201 1335.84 319.719L1194.92 510.306V169.881C1194.92 153.327 1186.85 145.262 1171.15 145.262H1147.38C1130.82 145.262 1122.76 153.327 1122.76 169.881V725.937C1122.76 741.643 1130.82 749.708 1147.38 749.708H1171.15C1186.85 749.708 1194.92 741.643 1194.92 725.937V606.237L1245.86 542.566L1344.33 732.304C1347.73 738.671 1351.55 742.916 1355.79 745.887C1360.04 748.859 1366.41 750.132 1374.9 750.132H1404.61C1413.1 750.132 1418.62 747.161 1421.16 741.643C1423.71 736.125 1423.28 730.182 1419.89 723.815L1292.55 483.989V483.565Z" fill="#00693A"/>
<path d="M2140.89 722.653L2013.55 482.828L2136.65 328.32C2141.32 323.227 2142.59 317.284 2140.47 310.917C2138.35 304.55 2133.25 301.154 2124.76 301.154H2090.81C2081.89 301.154 2075.1 302.852 2070.43 305.823C2065.76 308.795 2061.52 313.464 2056.85 318.982L1915.92 509.569V114.812C1915.92 98.2573 1907.86 90.1924 1892.15 90.1924H1868.38C1851.83 90.1924 1843.76 98.2573 1843.76 114.812V725.625C1843.76 741.33 1851.83 749.395 1868.38 749.395H1892.15C1907.86 749.395 1915.92 741.33 1915.92 725.625V605.924L1966.86 542.253L2065.34 731.992C2068.73 738.359 2072.55 742.603 2076.8 745.575C2081.04 748.546 2087.41 749.819 2095.9 749.819H2125.61C2134.1 749.819 2139.62 746.848 2142.17 741.33C2144.71 735.812 2144.29 729.869 2140.89 723.502V722.653Z" fill="#00693A"/>
</g>
<defs>
<clipPath id="clip0_1103_110">
<rect width="2144" height="1539.98" fill="white"/>
</clipPath>
</defs>
</svg>
