<svg width="2714" height="552" viewBox="0 0 2714 552" fill="none" xmlns="http://www.w3.org/2000/svg">
<g clip-path="url(#clip0_1324_67)">
<path d="M544.585 295.319L619.885 200.823C622.659 197.717 623.436 194.166 622.215 190.172C620.995 186.178 617.814 184.217 612.599 184.217H591.814C586.266 184.217 582.124 185.179 579.35 187.065C576.576 188.988 573.803 191.651 571.029 195.128L484.818 311.444V14.8652C484.818 4.8424 479.973 -0.1875 470.283 -0.1875H455.748C445.688 -0.1875 440.695 4.8424 440.695 14.8652V443.294C440.695 452.984 445.725 457.829 455.748 457.829H470.283C479.973 457.829 484.818 452.984 484.818 443.294V370.065L515.959 331.12L576.207 446.919C578.278 450.728 580.608 453.502 583.234 455.24C585.823 456.978 589.706 457.829 594.921 457.829H613.08C618.258 457.829 621.661 456.091 623.214 452.651C624.767 449.212 624.508 445.55 622.437 441.741L544.548 295.319H544.585Z" fill="#00693A"/>
<path d="M1043.57 208.793C1034.99 200.619 1024.71 194.406 1012.73 190.227C1000.74 186.048 987.873 183.939 974.189 183.939C960.505 183.939 947.634 186.048 935.614 190.227C923.631 194.406 913.349 200.619 904.769 208.793C896.188 216.967 889.42 227.359 884.501 239.934C879.545 252.509 877.067 266.97 877.067 283.354C877.067 299.738 879.545 314.754 884.501 327.329C889.457 339.903 896.225 350.259 904.769 358.469C913.349 366.68 923.631 372.746 935.614 376.74C947.597 380.734 960.468 382.731 974.189 382.731C987.91 382.731 1000.74 380.734 1012.73 376.74C1024.71 372.746 1034.99 366.643 1043.57 358.469C1052.15 350.296 1058.88 339.903 1063.84 327.329C1068.8 314.754 1071.27 300.108 1071.27 283.354C1071.27 266.6 1068.8 252.509 1063.84 239.934C1058.88 227.359 1052.12 217.004 1043.57 208.793ZM1011.88 329.215C1001.41 338.424 988.835 343.047 974.189 343.047C959.543 343.047 946.968 338.424 936.501 329.215C926.516 320.449 921.338 305.101 920.894 283.354C921.375 261.607 926.516 246.258 936.501 237.493C946.968 228.284 959.543 223.661 974.189 223.661C988.835 223.661 1001.41 228.284 1011.88 237.493C1021.86 246.295 1027.04 261.644 1027.48 283.354C1027 305.101 1021.86 320.449 1011.88 329.215Z" fill="#00693A"/>
<path d="M182.556 452.595C184.109 449.156 183.85 445.494 181.779 441.685L103.89 295.263L179.19 200.767C181.964 197.661 182.741 194.11 181.52 190.116C180.3 186.122 177.119 184.161 171.904 184.161H151.119C145.571 184.161 141.429 185.123 138.655 187.009C135.881 188.932 133.107 191.595 130.334 195.072L44.1226 311.388V48.2802C44.1226 38.2574 39.2776 33.2275 29.5876 33.2275H15.0527C4.99291 33.2275 0 38.2574 0 48.2802V443.238C0 452.928 5.0299 457.773 15.0527 457.773H29.5876C39.2776 457.773 44.1226 452.928 44.1226 443.238V370.009L75.2636 331.064L135.511 446.863C137.583 450.672 139.913 453.446 142.538 455.184C145.127 456.922 149.048 457.773 154.226 457.773H172.385C177.563 457.773 180.965 456.035 182.519 452.595H182.556Z" fill="#00693A"/>
<path d="M261.084 451.948C273.067 455.942 285.937 457.939 299.659 457.939C313.38 457.939 326.213 455.942 338.196 451.948C350.179 447.954 360.461 441.851 369.041 433.677C377.622 425.504 384.353 415.111 389.309 402.537C394.265 389.962 396.743 375.316 396.743 358.562C396.743 341.808 394.265 327.717 389.309 315.142C384.353 302.567 377.585 292.212 369.041 284.001C360.461 275.827 350.179 269.614 338.196 265.435C326.213 261.256 313.343 259.147 299.659 259.147C285.974 259.147 273.104 261.256 261.084 265.435C249.101 269.614 238.819 275.827 230.239 284.001C221.658 292.175 214.89 302.567 209.971 315.142C205.015 327.717 202.537 342.178 202.537 358.562C202.537 374.946 205.015 389.962 209.971 402.537C214.927 415.111 221.695 425.467 230.239 433.677C238.819 441.888 249.101 447.954 261.084 451.948ZM261.934 312.664C272.401 303.455 284.976 298.832 299.622 298.832C314.267 298.832 326.842 303.455 337.309 312.664C347.295 321.466 352.472 336.815 352.916 358.525C352.435 380.272 347.295 395.62 337.309 404.386C326.842 413.595 314.267 418.218 299.622 418.218C284.976 418.218 272.401 413.595 261.934 404.386C251.948 395.62 246.771 380.272 246.327 358.525C246.808 336.778 251.948 321.429 261.934 312.664Z" fill="#00693A"/>
<path d="M778.593 295.394L853.893 200.899C856.667 197.792 857.444 194.242 856.223 190.247C855.003 186.253 851.822 184.293 846.607 184.293H825.822C820.274 184.293 816.132 185.254 813.358 187.14C810.584 189.064 807.81 191.727 805.037 195.203L718.826 311.519V103.777C718.826 93.7545 713.981 88.7246 704.291 88.7246H689.756C679.696 88.7246 674.703 93.7545 674.703 103.777V443.369C674.703 453.059 679.733 457.904 689.756 457.904H704.291C713.981 457.904 718.826 453.059 718.826 443.369V370.14L749.967 331.195L810.214 446.994C812.286 450.803 814.616 453.577 817.242 455.315C819.83 457.054 823.751 457.904 828.929 457.904H847.088C852.266 457.904 855.668 456.166 857.222 452.726C858.775 449.287 858.516 445.625 856.445 441.816L778.556 295.394H778.593Z" fill="#00693A"/>
<path d="M1297.26 441.741L1219.37 295.319L1294.68 200.824C1297.45 197.717 1298.23 194.167 1297.01 190.172C1295.79 186.178 1292.6 184.218 1287.39 184.218H1266.6C1261.06 184.218 1256.91 185.179 1254.14 187.066C1251.37 188.989 1248.59 191.652 1245.82 195.128L1159.61 311.445V70.2314C1159.61 60.2086 1154.76 55.1787 1145.07 55.1787H1130.54C1120.48 55.1787 1115.49 60.2086 1115.49 70.2314V443.294C1115.49 452.984 1120.52 457.829 1130.54 457.829H1145.07C1154.76 457.829 1159.61 452.984 1159.61 443.294V370.065L1190.75 331.12L1251 446.919C1253.07 450.728 1255.4 453.502 1258.02 455.24C1260.61 456.979 1264.5 457.829 1269.71 457.829H1287.87C1293.05 457.829 1296.45 456.091 1298 452.651C1299.56 449.212 1299.3 445.55 1297.23 441.741H1297.26Z" fill="#00693A"/>
<path d="M1569.78 201.108C1561.97 193.675 1552.65 188.053 1541.74 184.243C1530.83 180.434 1519.14 178.548 1506.68 178.548C1494.22 178.548 1482.53 180.471 1471.62 184.243C1460.71 188.053 1451.35 193.675 1443.58 201.108C1435.78 208.542 1429.64 217.973 1425.17 229.402C1420.65 240.83 1418.4 253.996 1418.4 268.864V351.931C1418.4 366.466 1420.28 379.115 1424.09 389.84C1427.9 400.566 1433.19 409.479 1439.92 416.58C1446.65 423.681 1454.72 428.97 1464.07 432.41C1473.43 435.886 1483.45 437.588 1494.18 437.588C1505.94 437.588 1516.67 435.516 1526.36 431.374C1536.05 427.232 1544.18 420.649 1550.77 411.624V462.515C1550.77 472.205 1549.62 480.268 1547.4 486.666C1545.14 493.064 1542.04 498.094 1538.04 501.719C1534.05 505.343 1529.39 507.969 1524.03 509.522C1518.66 511.076 1512.86 511.852 1506.64 511.852C1493.48 511.852 1483.27 508.487 1476.02 501.719C1468.73 494.988 1465.11 486.407 1465.11 476.014C1465.11 467.36 1460.78 463.033 1452.13 463.033H1436.04C1425.98 463.033 1420.99 467.878 1420.99 477.568C1420.99 487.96 1422.98 497.65 1426.94 506.638C1430.9 515.625 1436.63 523.429 1444.07 530.012C1451.5 536.595 1460.49 541.773 1471.06 545.582C1481.6 549.392 1493.48 551.278 1506.64 551.278C1519.11 551.278 1530.79 549.54 1541.7 546.1C1552.62 542.624 1561.97 537.261 1569.74 530.012C1577.54 522.726 1583.68 513.554 1588.16 502.495C1592.67 491.4 1594.89 478.271 1594.89 463.033V268.827C1594.89 253.959 1592.63 240.793 1588.16 229.365C1583.65 217.936 1577.51 208.505 1569.74 201.071L1569.78 201.108ZM1550.84 344.682C1550.84 364.062 1546.51 377.562 1537.86 385.18C1529.2 392.799 1518.81 396.609 1506.72 396.609C1494.62 396.609 1484.19 392.799 1475.58 385.18C1466.92 377.562 1462.59 364.062 1462.59 344.682V271.453C1462.59 252.073 1466.92 238.574 1475.58 230.955C1484.23 223.336 1494.62 219.527 1506.72 219.527C1518.81 219.527 1529.2 223.336 1537.86 230.955C1546.51 238.574 1550.84 252.073 1550.84 271.453V344.682Z" fill="#00693A"/>
<path d="M1807.15 201.108C1799.35 193.675 1790.03 188.053 1779.12 184.243C1768.21 180.434 1756.52 178.548 1744.06 178.548C1731.59 178.548 1720.17 180.471 1709.77 184.243C1699.38 188.053 1690.54 193.527 1683.29 200.591C1676.01 207.692 1670.38 216.013 1666.43 225.518C1662.43 235.06 1660.47 245.527 1660.47 256.918C1660.47 266.608 1665.5 271.453 1675.53 271.453H1691.61C1700.27 271.453 1704.59 267.126 1704.59 258.471C1704.59 247.043 1708.15 237.686 1715.25 230.437C1722.35 223.151 1731.93 219.527 1744.06 219.527C1756.19 219.527 1766.54 223.336 1775.2 230.955C1783.85 238.574 1788.18 252.073 1788.18 271.453V296.898H1744.06C1717.06 296.898 1695.57 303.999 1679.67 318.201C1663.73 332.404 1655.78 352.486 1655.78 378.449V382.074C1655.78 395.24 1658.03 406.816 1662.54 416.876C1667.02 426.936 1673.27 435.405 1681.22 442.322C1689.17 449.238 1698.53 454.526 1709.25 458.151C1719.98 461.775 1731.59 463.588 1744.06 463.588C1756.52 463.588 1768.21 461.664 1779.12 457.892C1790.03 454.083 1799.39 448.461 1807.15 441.027C1814.96 433.593 1821.1 424.236 1825.57 412.993C1830.08 401.749 1832.3 388.509 1832.3 373.271V268.901C1832.3 254.033 1830.05 240.867 1825.57 229.439C1821.06 218.01 1814.92 208.579 1807.15 201.145V201.108ZM1788.18 370.646C1788.18 390.025 1783.85 403.525 1775.2 411.144C1766.54 418.762 1756.15 422.572 1744.06 422.572C1731.96 422.572 1721.53 419.206 1712.92 412.438C1704.26 405.67 1699.93 394.538 1699.93 378.93C1699.93 363.323 1704.26 352.375 1712.92 345.94C1721.57 339.542 1731.96 336.324 1744.06 336.324H1788.18V370.609V370.646Z" fill="#00693A"/>
<path d="M2001.67 180.445C1996.83 179.41 1992.32 178.818 1988.17 178.633C1984.03 178.448 1980.04 178.374 1976.23 178.374C1951.3 178.374 1932 184.07 1918.35 195.498C1904.66 206.926 1897.82 226.824 1897.82 255.228V443.22C1897.82 452.91 1902.67 457.755 1912.36 457.755H1926.89C1936.91 457.755 1941.94 452.91 1941.94 443.22V258.889C1941.94 243.652 1945.24 233.259 1951.82 227.748C1958.4 222.201 1968.61 219.427 1982.44 219.427C1985.22 219.427 1987.99 219.612 1990.76 219.945C1993.54 220.278 1996.46 220.795 1999.6 221.498C2004.45 222.201 2008.18 221.165 2010.77 218.391C2013.36 215.617 2014.66 211.808 2014.66 206.963V195.535C2014.66 190.69 2013.44 187.139 2011.03 184.883C2008.59 182.627 2005.48 181.148 2001.67 180.482V180.445Z" fill="#00693A"/>
<path d="M2214.51 89.0791H2200.49C2190.43 89.0791 2185.44 94.109 2185.44 104.132V204.878C2178.86 195.89 2170.72 189.233 2161.03 184.869C2151.34 180.542 2140.62 178.36 2128.85 178.36C2118.13 178.36 2108.07 180.098 2098.75 183.538C2089.39 187.014 2081.37 192.303 2074.6 199.367C2067.83 206.468 2062.58 215.381 2058.77 226.107C2054.96 236.832 2053.07 249.481 2053.07 264.016V373.046C2053.07 388.284 2055.33 401.598 2059.8 413.027C2064.32 424.455 2070.46 433.886 2078.26 441.32C2086.06 448.754 2095.38 454.301 2106.29 457.926C2117.2 461.55 2128.89 463.363 2141.36 463.363C2153.82 463.363 2165.51 461.55 2176.42 457.926C2187.33 454.301 2196.68 448.754 2204.45 441.32C2212.25 433.886 2218.39 424.455 2222.87 413.027C2227.34 401.598 2229.6 388.284 2229.6 373.046V104.132C2229.6 94.109 2224.57 89.0791 2214.55 89.0791H2214.51ZM2185.4 370.531C2185.4 389.911 2181.08 403.411 2172.42 411.03C2163.77 418.648 2153.38 422.458 2141.28 422.458C2129.19 422.458 2118.76 418.648 2110.14 411.03C2101.49 403.411 2097.16 389.911 2097.16 370.531V271.339C2097.16 251.959 2101.49 238.46 2110.14 230.841C2118.79 223.222 2129.19 219.413 2141.28 219.413C2153.38 219.413 2163.77 223.222 2172.42 230.841C2181.08 238.46 2185.4 251.959 2185.4 271.339V370.531Z" fill="#00693A"/>
<path d="M2446.84 201.108C2439.04 193.675 2429.72 188.053 2418.81 184.243C2407.9 180.434 2396.21 178.548 2383.75 178.548C2371.28 178.548 2359.6 180.471 2348.69 184.243C2337.78 188.053 2328.42 193.675 2320.65 201.108C2312.85 208.542 2306.71 217.973 2302.2 229.402C2297.68 240.83 2295.47 253.996 2295.47 268.864V373.234C2295.47 388.472 2297.72 401.713 2302.2 412.956C2306.71 424.199 2312.85 433.556 2320.65 440.99C2328.46 448.424 2337.78 454.046 2348.69 457.855C2359.6 461.664 2371.28 463.551 2383.75 463.551C2396.21 463.551 2408.16 461.627 2418.55 457.855C2428.94 454.046 2437.93 448.683 2445.55 441.767C2453.17 434.851 2459.05 426.529 2463.19 416.839C2467.33 407.149 2469.44 396.239 2469.44 384.145C2469.44 374.455 2464.41 369.61 2454.39 369.61H2438.3C2429.65 369.61 2425.32 373.937 2425.32 382.592C2425.32 394.722 2421.44 404.412 2413.63 411.661C2405.83 418.947 2395.88 422.572 2383.78 422.572C2371.69 422.572 2361.26 418.762 2352.64 411.144C2343.99 403.525 2339.66 390.025 2339.66 370.646V331.701H2457.01C2467.04 331.701 2472.07 326.856 2472.07 317.166V268.864C2472.07 253.996 2469.81 240.83 2465.34 229.402C2460.82 217.973 2454.68 208.542 2446.92 201.108H2446.84ZM2427.87 293.274H2339.59V271.453C2339.59 252.073 2343.92 238.574 2352.57 230.955C2361.22 223.336 2371.62 219.527 2383.71 219.527C2395.8 219.527 2406.2 223.336 2414.85 230.955C2423.51 238.574 2427.83 252.073 2427.83 271.453V293.274H2427.87Z" fill="#00693A"/>
<path d="M2688.28 201.108C2680.48 193.675 2671.16 188.053 2660.25 184.243C2649.34 180.434 2637.65 178.548 2625.19 178.548C2612.72 178.548 2601.04 180.471 2590.13 184.243C2579.22 188.053 2569.86 193.675 2562.09 201.108C2554.29 208.542 2548.15 217.973 2543.64 229.402C2539.12 240.83 2536.91 253.996 2536.91 268.864V443.32C2536.91 453.01 2541.75 457.855 2551.44 457.855H2565.98C2576 457.855 2581.03 453.01 2581.03 443.32V271.453C2581.03 252.073 2585.36 238.574 2594.01 230.955C2602.66 223.336 2613.06 219.527 2625.15 219.527C2637.24 219.527 2647.64 223.336 2656.29 230.955C2664.95 238.574 2669.27 252.073 2669.27 271.453V443.32C2669.27 453.01 2674.12 457.855 2683.81 457.855H2698.34C2708.37 457.855 2713.4 453.01 2713.4 443.32V268.864C2713.4 253.996 2711.14 240.83 2706.66 229.402C2702.15 217.973 2696.01 208.542 2688.21 201.108H2688.28Z" fill="#00693A"/>
</g>
<defs>
<clipPath id="clip0_1324_67">
<rect width="2713.41" height="551.513" fill="white"/>
</clipPath>
</defs>
</svg>
